<mxfile host="app.diagrams.net" modified="2022-03-24T01:42:21.084Z" agent="5.0 (Windows NT 10.0; Win64; x64) AppleWebKit/537.36 (KHTML, like Gecko) Chrome/99.0.4844.51 Safari/537.36" etag="Hj52s90b5G4_hAIOZt2z" version="17.1.3" type="github">
  <diagram id="2BqYw4zQGSXjnolnG8M8" name="Page-1">
    <mxGraphModel dx="980" dy="714" grid="1" gridSize="10" guides="1" tooltips="1" connect="1" arrows="1" fold="1" page="0" pageScale="1" pageWidth="827" pageHeight="1169" math="0" shadow="0">
      <root>
        <mxCell id="0" />
        <mxCell id="1" parent="0" />
        <mxCell id="JRCLz59xPzUI02gozjvl-3" value="创建sa请求" style="edgeStyle=orthogonalEdgeStyle;rounded=0;orthogonalLoop=1;jettySize=auto;html=1;exitX=1;exitY=0.5;exitDx=0;exitDy=0;" edge="1" parent="1" source="JRCLz59xPzUI02gozjvl-1" target="JRCLz59xPzUI02gozjvl-2">
          <mxGeometry relative="1" as="geometry" />
        </mxCell>
        <mxCell id="JRCLz59xPzUI02gozjvl-1" value="kubectl" style="rounded=0;whiteSpace=wrap;html=1;" vertex="1" parent="1">
          <mxGeometry y="160" width="80" height="40" as="geometry" />
        </mxCell>
        <mxCell id="JRCLz59xPzUI02gozjvl-2" value="controller manager" style="rounded=0;whiteSpace=wrap;html=1;" vertex="1" parent="1">
          <mxGeometry x="200" y="160" width="80" height="40" as="geometry" />
        </mxCell>
      </root>
    </mxGraphModel>
  </diagram>
</mxfile>
